PathFileType	4	(X/Y/Z)	Kaydara																																																																																																																									
DataRate	CameraRate	NumFrames	NumMarkers	Units	OrigDataRate	OrigDataStartFrame	OrigNumFrames																																																																																																																					
30	30	6	41	mm	30	34	144																																																																																																																					
Frame#	Time	EMLA_LFHD			EMLA_RFHD			EMLA_LBHD			EMLA_RBHD			EMLA_LFTShould			EMLA_RFTShould			EMLA_LRRShould			EMLA_RRRShould			EMLA_T10			EMLA_STRN			EMLA_TRUN			EMLA_LSHO			EMLA_LUPA			EMLA_LELB			EMLA_LFRM			EMLA_LWRA			EMLA_LWRB			EMLA_LFIN			EMLA_RSHO			EMLA_RUPA			EMLA_RELB			EMLA_RFRM			EMLA_RWRA			EMLA_RWRB			EMLA_RFIN			EMLA_LFWT			EMLA_RFWT			EMLA_LBWT			EMLA_RBWT			EMLA_LTHI			EMLA_LKNE			EMLA_LSHN			EMLA_LANK			EMLA_LHEE			EMLA_LTOE			EMLA_RTHI			EMLA_RKNE			EMLA_RSHN			EMLA_RANK			EMLA_RHEE			EMLA_RTOE		
		X1	Y1	Z1	X2	Y2	Z2	X3	Y3	Z3	X4	Y4	Z4	X5	Y5	Z5	X6	Y6	Z6	X7	Y7	Z7	X8	Y8	Z8	X9	Y9	Z9	X10	Y10	Z10	X11	Y11	Z11	X12	Y12	Z12	X13	Y13	Z13	X14	Y14	Z14	X15	Y15	Z15	X16	Y16	Z16	X17	Y17	Z17	X18	Y18	Z18	X19	Y19	Z19	X20	Y20	Z20	X21	Y21	Z21	X22	Y22	Z22	X23	Y23	Z23	X24	Y24	Z24	X25	Y25	Z25	X26	Y26	Z26	X27	Y27	Z27	X28	Y28	Z28	X29	Y29	Z29	X30	Y30	Z30	X31	Y31	Z31	X32	Y32	Z32	X33	Y33	Z33	X34	Y34	Z34	X35	Y35	Z35	X36	Y36	Z36	X37	Y37	Z37	X38	Y38	Z38	X39	Y39	Z39	X40	Y40	Z40	X41	Y41	Z41
																																																																																																																												
19	1.1	272.72541	1635.01114	-1881.13708	103.09015	1634.20013	-1884.38187	289.23502	1629.38751	-2032.16263	94.55755	1631.53305	-2037.16095	272.61786	1406.73004	-1940.98373	123.87201	1397.21649	-1939.17114	265.07803	1450.0856	-2090.36133	106.60782	1441.24817	-2086.8074	197.86573	1274.35631	-2130.94116	197.43961	1337.06924	-1901.09589	192.70517	1234.48875	-1879.21478	396.46187	1426.59271	-1994.53537	452.12147	1243.86948	-2007.02194	469.76704	1100.35889	-2009.73419	468.32611	963.17619	-2000.22171	388.17963	825.0441	-1910.35522	440.97618	801.10428	-1971.56219	437.91737	771.43593	-1908.8266	-0.13048	1423.81714	-1999.4931	-53.96627	1231.22459	-1987.05429	-66.37789	1083.29056	-1995.82214	-67.84493	983.14674	-2000.92133	-4.72658	823.98537	-1893.70209	-49.85751	798.95767	-1962.96616	-62.96508	774.9128	-1905.07751	292.93051	987.9319	-1905.448	58.95765	980.9066	-1927.5502	278.45501	1018.1044	-2105.36057	102.17813	1020.73601	-2105.91476	316.69682	729.65912	-2100.09766	316.02621	524.91943	-2063.58109	285.27805	343.31917	-2052.41577	283.6651	165.09321	-2122.79297	216.57963	84.89971	-2180.77591	247.46675	73.952	-1982.39655	68.70619	718.04939	-2123.75397	33.97863	516.14044	-2060.81543	77.99933	293.32134	-2053.89816	41.01253	131.61532	-2133.70361	96.85306	77.4129	-2186.19217	67.63693	71.42213	-1985.16327
20	1.133	272.95137	1634.49554	-1880.61081	103.39175	1633.60992	-1883.86887	289.47428	1629.59946	-2031.56723	94.79071	1631.76208	-2036.73035	272.73909	1406.6069	-1941.0495	123.96543	1397.18826	-1939.61533	265.44577	1450.0412	-2090.42831	107.04096	1441.353	-2087.15027	198.2379	1274.41994	-2131.241	197.42979	1336.94107	-1901.42624	192.72985	1234.42284	-1879.55307	396.67683	1426.52695	-1994.45938	452.44019	1243.83095	-2006.875	470.15274	1100.35744	-2009.49615	468.79173	963.19138	-2000.05341	388.77209	824.93515	-1910.29541	441.59786	801.05743	-1971.50177	438.56892	771.39648	-1908.80478	0.14309	1423.88046	-2000.02975	-53.63678	1231.24588	-1987.51007	-65.92228	1083.32169	-1996.4566	-67.44873	983.26332	-2001.66702	-4.08832	823.93562	-1894.38751	-49.33986	799.13887	-1963.54355	-62.27079	774.89792	-1905.76065	292.79335	987.93175	-1905.51315	58.83014	980.90546	-1928.13263	278.74138	1017.93846	-2105.47592	102.51896	1020.72838	-2106.33728	316.72567	729.59061	-2099.98932	316.02736	524.79137	-2063.35556	285.2689	343.27354	-2052.34726	283.675	165.03023	-2122.76871	216.58651	84.79174	-2180.87845	247.39759	73.97411	-1982.40829	68.52526	718.08395	-2124.08661	34.00489	516.17119	-2060.9671	77.9576	293.36033	-2053.97171	40.96271	131.61613	-2133.75443	96.85814	77.37431	-2186.18439	67.6243	71.41311	-1985.1532
21	1.167	272.94903	1633.96729	-1880.21362	103.46679	1632.95731	-1883.66211	289.7234	1629.79553	-2031.15234	95.01205	1631.85959	-2036.64001	272.95454	1406.55853	-1941.32309	123.99766	1397.01782	-1940.18005	265.86782	1449.90372	-2090.69809	107.44098	1441.27075	-2087.59735	198.60138	1274.27994	-2131.54358	197.48241	1336.86783	-1901.85501	192.69558	1234.31847	-1879.91058	396.90773	1426.35788	-1994.47891	452.74696	1243.67661	-2006.56281	470.5122	1100.21011	-2009.26102	469.203	963.05992	-1999.86481	388.62713	824.5546	-1910.44128	441.97559	800.89218	-1971.39847	438.79402	771.23016	-1908.68835	0.36253	1423.84155	-2000.70358	-53.56695	1231.30074	-1988.40378	-65.65856	1083.25706	-1997.20276	-67.11107	983.14209	-2002.51999	-3.52414	823.88763	-1895.35538	-48.7882	799.25026	-1964.37561	-61.62403	774.73923	-1906.66092	292.75486	987.94495	-1905.35141	58.88014	981.12534	-1928.17368	278.8619	1017.66022	-2105.38223	102.68459	1020.5204	-2106.47171	316.89865	729.5195	-2099.65042	316.0113	524.72637	-2063.15308	285.16973	343.25592	-2052.17499	283.56451	164.90349	-2123.04459	216.58239	84.83197	-2180.85602	247.37036	73.9684	-1982.36893	68.83036	718.09227	-2124.09775	34.02205	516.10485	-2060.97198	77.96307	293.33494	-2053.96683	40.99452	131.611	-2133.73795	96.87201	77.32101	-2186.17371	67.62398	71.41376	-1985.14572
22	1.2	272.95633	1633.64212	-1880.05341	103.41225	1632.53799	-1883.8266	290.00645	1629.90738	-2030.979	95.31169	1631.88156	-2036.81183	273.06992	1406.39923	-1941.59653	124.05524	1396.98715	-1940.64331	266.2023	1449.63303	-2091.04858	107.72414	1441.11481	-2088.10638	198.91312	1274.00314	-2131.80099	197.53635	1336.83136	-1902.17346	192.64753	1234.28345	-1880.15961	397.12273	1426.13876	-1994.65485	453.0172	1243.45993	-2006.63956	470.80475	1099.96803	-2009.13193	469.42577	962.83318	-1999.66461	388.62171	824.39117	-1910.34195	442.13501	800.69771	-1971.1763	438.81275	771.05431	-1908.47488	0.57159	1423.70087	-2001.37329	-53.43836	1231.04309	-1989.03397	-65.48862	1083.08731	-1998.26431	-66.71479	982.89627	-2003.47702	-3.34197	823.75969	-1896.37375	-48.46549	799.22409	-1965.20584	-61.357	774.56268	-1907.79114	292.60229	987.98233	-1904.8909	58.69175	981.10306	-1928.06427	278.92384	1017.5621	-2104.97162	102.79661	1020.34622	-2106.31378	317.03054	729.59702	-2099.36569	315.99386	524.72057	-2062.99393	285.18433	343.28884	-2052.11792	283.56852	164.93013	-2123.14621	216.59592	84.87146	-2180.8696	247.36269	73.95533	-1982.35214	69.23576	718.00323	-2123.76633	34.06829	516.12995	-2060.91705	77.9824	293.30738	-2053.90533	41.06778	131.61352	-2133.75809	96.92461	77.34537	-2186.18683	67.57631	71.41308	-1985.11566
23	1.233	272.7898	1633.3757	-1879.97238	103.22891	1632.3259	-1884.28299	290.22877	1629.96735	-2030.923	95.54415	1631.92078	-2037.25098	273.0678	1406.26831	-1941.90964	124.17083	1397.11838	-1940.98618	266.34655	1449.26437	-2091.26541	107.9796	1440.91751	-2088.61389	199.14124	1273.66943	-2131.93695	197.51316	1336.91803	-1902.51862	192.5499	1234.4606	-1880.26489	397.25361	1425.93857	-1994.9498	453.07362	1243.2206	-2006.70319	470.84667	1099.74724	-2009.15573	469.43031	962.59125	-1999.51935	388.49144	824.22844	-1910.16495	442.00562	800.48615	-1970.88699	438.63232	770.91949	-1908.16483	0.6531	1423.62991	-2002.08267	-53.23399	1230.87029	-1990.04471	-65.30889	1082.98782	-1999.39362	-66.54093	982.7562	-2004.6875	-3.45184	823.62602	-1897.51266	-48.32773	799.26239	-1966.34583	-61.40408	774.4014	-1909.18106	292.56519	988.05893	-1904.4841	58.69766	981.08475	-1927.62238	278.95584	1017.47421	-2104.56207	102.81217	1020.26093	-2105.91354	317.00195	729.60541	-2098.95065	316.02333	524.67205	-2062.54974	285.17237	343.17551	-2051.85837	283.55412	164.94974	-2123.10089	216.59193	84.88546	-2180.83954	247.37835	73.96471	-1982.34207	69.12961	718.01666	-2123.35831	34.06927	516.12595	-2060.66528	77.9863	293.32619	-2053.75671	41.03425	131.67557	-2133.71368	96.92066	77.40993	-2186.16577	67.57993	71.38071	-1985.09521
24	1.267	272.69405	1633.28598	-1880.13046	103.14104	1632.2081	-1884.71893	290.40232	1630.0238	-2030.98129	95.72205	1631.97037	-2037.74048	273.16681	1406.36993	-1942.28363	124.172	1397.17514	-1941.31531	266.50831	1449.16687	-2091.75278	108.16454	1440.71609	-2089.0799	199.28274	1273.34854	-2131.97784	197.47149	1337.06802	-1902.72644	192.58181	1234.61975	-1880.33386	397.32143	1425.84106	-1995.28976	453.05317	1243.05939	-2007.00272	470.68062	1099.57481	-2009.207	469.15512	962.41875	-1999.38309	388.61549	824.31023	-1909.69223	441.72108	800.37781	-1970.61905	438.44669	770.87532	-1907.87827	0.69341	1423.60764	-2002.65335	-52.99121	1230.74913	-1990.85388	-65.2219	1082.97234	-2000.37186	-66.47855	982.79991	-2005.79697	-3.73269	823.37906	-1898.76907	-48.2953	799.40147	-1967.51068	-61.69593	774.25491	-1910.6546	292.7276	988.05679	-1904.07074	58.82812	981.05904	-1927.202	278.9617	1017.27638	-2104.1301	102.83641	1020.12573	-2105.43777	317.09217	729.52965	-2098.32336	316.05896	524.61208	-2061.92062	285.16169	343.09494	-2051.4415	283.49628	164.95203	-2122.89307	216.57864	84.95218	-2180.77591	247.35144	73.96011	-1982.29477	68.85972	718.12317	-2122.97516	34.08678	516.18786	-2060.4213	77.9986	293.29838	-2053.64044	41.00859	131.6916	-2133.72971	96.86745	77.48366	-2186.19843	67.56187	71.3845	-1985.08545
